<?xml version="1.0" standalone="no"?><!DOCTYPE svg PUBLIC "-//W3C//DTD SVG 1.1//EN" "http://www.w3.org/Graphics/SVG/1.1/DTD/svg11.dtd"><svg t="1689911612967" class="icon" viewBox="0 0 1024 1024" version="1.1" xmlns="http://www.w3.org/2000/svg" p-id="7117" xmlns:xlink="http://www.w3.org/1999/xlink" width="200" height="200"><path d="M512 64C264.58 64 64 264.58 64 512s200.58 448 448 448 448-200.58 448-448S759.42 64 512 64z m0 800c-194.4 0-352-157.6-352-352s157.6-352 352-352 352 157.6 352 352-157.6 352-352 352z" p-id="7118"></path><path d="M512 768c119.29 0 219.52-81.59 247.93-192H264.07C292.48 686.41 392.71 768 512 768z" p-id="7119"></path><path d="M336 400m-48 0a48 48 0 1 0 96 0 48 48 0 1 0-96 0Z" p-id="7120"></path><path d="M688 400m-48 0a48 48 0 1 0 96 0 48 48 0 1 0-96 0Z" p-id="7121"></path></svg>