<?xml version="1.0" standalone="no"?><!DOCTYPE svg PUBLIC "-//W3C//DTD SVG 1.1//EN" "http://www.w3.org/Graphics/SVG/1.1/DTD/svg11.dtd"><svg class="icon" width="200px" height="200.00px" viewBox="0 0 1024 1024" version="1.1" xmlns="http://www.w3.org/2000/svg"><path d="M368.6 331.5m-149.6 0a149.6 149.6 0 1 0 299.2 0 149.6 149.6 0 1 0-299.2 0ZM748.4 235.1m-100.7 0a100.7 100.7 0 1 0 201.4 0 100.7 100.7 0 1 0-201.4 0ZM919.6 426.7c-97.4-62-96.4-62-166.4-62-68.9 0-69.1 0-174.1 64.5-8.6 5.7-15.8 19.7-21.6 36.1 25.3 12.1 57.1 32.5 111.5 67.2 12.4 7.7 23.1 26.1 31.6 47.8 16.2-0.4 33.2-0.7 50.7-0.7 115.5 0 209.1 14.6 209.1-38.4 0-21.3-15.2-98.6-40.8-114.5zM657.3 668.1c-9.3-23.7-20.9-43.7-34.4-52.1-59.2-37.7-94-60-121.5-73.2-39.6-19-64.3-19-125.7-19-102.4 0-102.6 0-258.6 95.8-34.6 23-54.8 136.3-54.8 166.3 0 78.7 139.1 57 310.6 57s310.6 21.7 310.6-57c0-20.3-9.4-75.1-26.2-117.8z" /></svg>