<?xml version="1.0" standalone="no"?><!DOCTYPE svg PUBLIC "-//W3C//DTD SVG 1.1//EN" "http://www.w3.org/Graphics/SVG/1.1/DTD/svg11.dtd"><svg t="1689912120232" class="icon" viewBox="0 0 1024 1024" version="1.1" xmlns="http://www.w3.org/2000/svg" p-id="8125" xmlns:xlink="http://www.w3.org/1999/xlink" width="200" height="200"><path d="M928 896H96c-53.02 0-96-42.98-96-96V224c0-53.02 42.98-96 96-96h832c53.02 0 96 42.98 96 96v576c0 53.02-42.98 96-96 96zM224 240c-61.856 0-112 50.144-112 112s50.144 112 112 112 112-50.144 112-112-50.144-112-112-112zM128 768h768V544l-175.03-175.03c-9.372-9.372-24.568-9.372-33.942 0L416 640l-111.03-111.03c-9.372-9.372-24.568-9.372-33.942 0L128 672v96z" p-id="8126"></path></svg>