<?xml version="1.0" standalone="no"?><!DOCTYPE svg PUBLIC "-//W3C//DTD SVG 1.1//EN" "http://www.w3.org/Graphics/SVG/1.1/DTD/svg11.dtd"><svg height="240" node-id="1" sillyvg="true" template-height="240" template-width="240" version="1.1" viewBox="0 0 240 240" width="240" xmlns="http://www.w3.org/2000/svg" xmlns:xlink="http://www.w3.org/1999/xlink"><defs node-id="40"><clipPath id="clip-path" node-id="5"><path d="M 129.59 184.66 C 129.59 189.03 115.12 192.57 97.26 192.57 C 79.40 192.57 64.93 189.03 64.93 184.66 C 64.93 180.29 79.40 176.75 97.26 176.75 C 115.12 176.75 129.59 180.29 129.59 184.66 Z" fill="#000000" fill-rule="nonzero" node-id="43" stroke="none" target-height="15.820007" target-width="64.659996" target-x="64.93" target-y="176.75"></path></clipPath><clipPath id="clip-path-2" node-id="7"><path d="M 211.94 141.19 C 211.94 147.32 191.61 152.29 166.54 152.29 C 141.47 152.29 121.14 147.32 121.14 141.19 C 121.14 135.06 141.47 130.09 166.54 130.09 C 191.61 130.09 211.94 135.06 211.94 141.19 Z" fill="#000000" fill-rule="nonzero" node-id="47" stroke="none" target-height="22.199997" target-width="90.8" target-x="121.14" target-y="130.09"></path></clipPath></defs><path d="M 48.48 168.77 L 49.31 165.01 C 49.44 164.42 49.21 163.80 48.73 163.43 C 48.25 163.06 47.60 163.00 47.06 163.28 L 44.00 164.84 C 43.00 165.36 41.79 165.24 40.91 164.54 C 40.03 163.85 39.64 162.70 39.91 161.61 C 40.50 159.48 41.59 157.53 43.09 155.91 L 66.51 129.76 C 68.00 128.09 70.31 127.69 71.73 128.76 L 75.85 131.88 C 77.27 132.96 77.50 135.30 76.30 137.18 L 57.39 166.77 C 56.09 168.92 54.21 170.66 51.95 171.77 C 51.05 172.13 50.03 171.96 49.30 171.33 C 48.57 170.70 48.25 169.71 48.48 168.77 Z" fill="#007560" fill-rule="nonzero" node-id="51" stroke="#000000" stroke-linecap="butt" stroke-width="2.23" target-height="44.440002" target-width="37.86" target-x="39.64" target-y="127.69"></path><path d="M 132.78 148.08 L 130.17 145.25 C 129.76 144.80 129.64 144.16 129.87 143.60 C 130.10 143.03 130.63 142.65 131.24 142.62 L 134.66 142.44 C 135.78 142.38 136.77 141.67 137.18 140.62 C 137.59 139.58 137.35 138.39 136.57 137.58 C 134.99 136.04 133.07 134.90 130.96 134.25 L 97.56 123.43 C 95.44 122.75 93.23 123.56 92.56 125.21 L 90.56 129.98 C 89.88 131.62 90.86 133.76 92.84 134.78 L 124.07 150.83 C 126.27 152.04 128.77 152.58 131.27 152.40 C 132.22 152.26 133.02 151.61 133.34 150.70 C 133.65 149.79 133.44 148.78 132.78 148.08 Z" fill="#007560" fill-rule="nonzero" node-id="53" stroke="#000000" stroke-linecap="butt" stroke-width="2.23" target-height="29.830002" target-width="47.71" target-x="89.88" target-y="122.75"></path><path d="M 77.41 137.00 L 53.75 137.70 C 48.01 137.86 43.21 134.37 43.96 129.91 L 46.72 113.55 C 47.48 109.09 53.15 107.36 58.52 109.40 L 80.64 117.82 C 82.88 118.82 84.16 121.23 83.72 123.65 L 82.23 132.50 C 81.85 134.93 79.86 136.78 77.41 137.00 Z" fill="#007560" fill-rule="nonzero" node-id="55" stroke="#000000" stroke-linecap="butt" stroke-width="2.23" target-height="30.5" target-width="40.950005" target-x="43.21" target-y="107.36"></path><path d="M 69.73 121.48 L 79.35 124.68" fill="#007560" fill-rule="nonzero" node-id="57" stroke="#000000" stroke-linecap="butt" stroke-width="2.23" target-height="3.199997" target-width="9.619995" target-x="69.73" target-y="121.48"></path><path d="M 68.82 129.25 L 78.89 128.16" fill="#007560" fill-rule="nonzero" node-id="59" stroke="#000000" stroke-linecap="butt" stroke-width="2.23" target-height="1.0899963" target-width="10.07" target-x="68.82" target-y="128.16"></path><path d="M 91.28 134.39 L 114.28 128.63 C 119.85 127.24 123.52 122.57 121.59 118.49 L 114.49 103.49 C 112.55 99.40 106.62 99.29 102.01 102.71 L 83.00 116.80 C 81.12 118.38 80.55 121.04 81.62 123.26 L 85.46 131.36 C 86.49 133.57 88.88 134.82 91.28 134.39 Z" fill="#007560" fill-rule="nonzero" node-id="61" stroke="#000000" stroke-linecap="butt" stroke-width="2.23" target-height="35.530006" target-width="42.969994" target-x="80.55" target-y="99.29"></path><path d="M 94.44 117.36 L 86.06 123.05" fill="#007560" fill-rule="nonzero" node-id="63" stroke="#000000" stroke-linecap="butt" stroke-width="2.23" target-height="5.6900024" target-width="8.380005" target-x="86.06" target-y="117.36"></path><path d="M 97.44 124.59 L 87.45 126.27" fill="#007560" fill-rule="nonzero" node-id="65" stroke="#000000" stroke-linecap="butt" stroke-width="2.23" target-height="1.6800003" target-width="9.9900055" target-x="87.45" target-y="124.59"></path><path d="M 90.67 126.62 C 90.67 130.59 87.46 133.80 83.49 133.80 C 79.52 133.80 76.31 130.59 76.31 126.62 C 76.31 122.65 79.52 119.44 83.49 119.44 C 87.46 119.44 90.67 122.65 90.67 126.62 Z" fill="#007560" fill-rule="nonzero" node-id="67" stroke="#000000" stroke-linecap="butt" stroke-width="2.23" target-height="14.360001" target-width="14.360001" target-x="76.31" target-y="119.44"></path><path d="M 59.35 182.74 C 63.49 177.35 65.81 170.79 66.00 164.00 C 66.00 163.46 66.00 162.90 66.00 162.32 C 66.00 145.83 61.87 134.69 81.60 129.89 C 101.33 125.09 108.23 128.57 113.34 140.81 C 118.45 153.05 123.34 162.17 126.56 163.15 C 129.78 164.13 135.79 166.09 136.24 173.15 C 136.69 180.21 134.24 191.75 95.83 198.54 C 57.42 205.33 58.28 195.66 57.49 189.42 C 57.20 187.03 57.87 184.63 59.35 182.74 Z" fill="#ffc400" fill-rule="nonzero" node-id="69" stroke="#000000" stroke-linecap="butt" stroke-width="2.23" target-height="80.240005" target-width="79.490005" target-x="57.2" target-y="125.09"></path><g node-id="120"><path d="M 128.91 178.03 L 128.86 179.04 L 128.31 180.18 L 127.05 181.56 L 124.60 183.37 L 120.78 185.44 L 116.46 187.31 L 111.07 189.21 L 105.34 190.87 L 98.88 192.39 L 92.36 193.59 L 86.44 194.36 L 80.74 194.78 L 76.03 194.81 L 71.71 194.44 L 68.74 193.77 L 67.03 193.01 L 66.06 192.18 L 65.62 191.27 L 65.66 190.27 L 66.21 189.12 L 67.47 187.74 L 69.93 185.93 L 73.74 183.86 L 78.07 182.00 L 83.45 180.10 L 89.19 178.43 L 95.64 176.91 L 102.17 175.71 L 108.09 174.94 L 113.78 174.52 L 118.49 174.49 L 122.82 174.86 L 125.79 175.54 L 127.50 176.30 L 128.46 177.13 L 128.91 178.03 Z" fill="#000000" fill-rule="nonzero" group-id="1" node-id="73" stroke="none" target-height="20.319992" target-width="63.29" target-x="65.62" target-y="174.49"></path></g><g node-id="121"><g clip-path="url(#clip-path)" group-id="2" id="sillyvg_g_0" node-id="76"><path d="M 101.84 179.07 C 101.84 182.79 98.83 185.80 95.11 185.80 C 91.39 185.80 88.38 182.79 88.38 179.07 C 88.38 175.35 91.39 172.34 95.11 172.34 C 98.83 172.34 101.84 175.35 101.84 179.07 Z" fill="#ffffff" fill-rule="nonzero" group-id="2" node-id="78" stroke="#000000" stroke-linecap="butt" stroke-width="2.23" target-height="13.460007" target-width="13.459999" target-x="88.38" target-y="172.34"></path></g></g><g node-id="122"><path d="M 128.91 178.03 L 128.86 179.04 L 128.31 180.18 L 127.05 181.56 L 124.60 183.37 L 120.78 185.44 L 116.46 187.31 L 111.07 189.21 L 105.34 190.87 L 98.88 192.39 L 92.36 193.59 L 86.44 194.36 L 80.74 194.78 L 76.03 194.81 L 71.71 194.44 L 68.74 193.77 L 67.03 193.01 L 66.06 192.18 L 65.62 191.27 L 65.66 190.27 L 66.21 189.12 L 67.47 187.74 L 69.93 185.93 L 73.74 183.86 L 78.07 182.00 L 83.45 180.10 L 89.19 178.43 L 95.64 176.91 L 102.17 175.71 L 108.09 174.94 L 113.78 174.52 L 118.49 174.49 L 122.82 174.86 L 125.79 175.54 L 127.50 176.30 L 128.46 177.13 L 128.91 178.03 Z" fill="none" group-id="3" node-id="83" stroke="#000000" stroke-linecap="butt" stroke-width="2.23" target-height="20.319992" target-width="63.29" target-x="65.62" target-y="174.49"></path></g><path d="M 97.63 162.14 L 95.55 157.14 C 95.23 156.33 94.47 155.79 93.61 155.75 C 92.74 155.71 91.94 156.18 91.55 156.96 L 89.29 161.21 C 88.57 162.62 87.08 163.47 85.49 163.38 C 83.91 163.29 82.53 162.27 81.98 160.78 C 80.95 157.86 80.63 154.73 81.05 151.66 L 87.00 102.72 C 87.38 99.61 89.72 97.28 92.22 97.38 L 99.47 97.67 C 101.97 97.77 104.12 100.28 104.25 103.40 L 106.25 152.66 C 106.48 156.18 105.70 159.68 104.00 162.77 C 103.26 163.89 101.96 164.51 100.63 164.37 C 99.29 164.24 98.14 163.38 97.63 162.14 Z" fill="#3757b9" fill-rule="nonzero" node-id="86" stroke="#000000" stroke-linecap="butt" stroke-width="2.23" target-height="67.229996" target-width="25.850006" target-x="80.63" target-y="97.28"></path><path d="M 178.00 70.52 L 172.72 69.35 C 171.89 69.17 171.24 68.52 171.05 67.69 C 170.86 66.86 171.17 65.99 171.84 65.47 L 175.63 62.47 C 176.89 61.51 177.47 59.89 177.10 58.35 C 176.73 56.81 175.48 55.63 173.92 55.35 C 170.87 54.85 167.74 55.08 164.79 56.03 L 117.64 70.47 C 114.64 71.39 112.76 74.10 113.30 76.55 L 114.85 83.63 C 115.39 86.08 118.23 87.75 121.34 87.33 L 170.19 80.68 C 173.69 80.29 177.01 78.90 179.74 76.68 C 180.71 75.75 181.09 74.37 180.73 73.08 C 180.36 71.78 179.31 70.80 178.00 70.52 Z" fill="#3757b9" fill-rule="nonzero" node-id="88" stroke="#000000" stroke-linecap="butt" stroke-width="2.23" target-height="32.9" target-width="68.329994" target-x="112.76" target-y="54.85"></path><path d="M 105.37 102.31 L 78.70 122.14 C 72.23 126.96 63.90 126.80 61.18 121.06 L 51.19 100.00 C 48.47 94.26 53.61 87.71 61.43 85.74 L 93.66 77.63 C 96.84 76.83 100.43 78.77 101.90 81.87 L 107.30 93.25 C 108.77 96.35 108.00 100.36 105.37 102.31 Z" fill="#3757b9" fill-rule="nonzero" node-id="90" stroke="#000000" stroke-linecap="butt" stroke-width="2.23" target-height="50.129997" target-width="60.299995" target-x="48.47" target-y="76.83"></path><path d="M 84.05 90.61 L 97.69 86.56" fill="#3757b9" fill-rule="nonzero" node-id="92" stroke="#000000" stroke-linecap="round" stroke-width="2.23" target-height="4.050003" target-width="13.639999" target-x="84.05" target-y="86.56"></path><path d="M 89.24 100.29 L 99.96 90.94" fill="#3757b9" fill-rule="nonzero" node-id="94" stroke="#000000" stroke-linecap="round" stroke-width="2.23" target-height="9.349998" target-width="10.720001" target-x="89.24" target-y="90.94"></path><path d="M 119.22 88.13 L 141.00 63.05 C 146.29 56.96 146.76 48.64 141.25 45.49 L 121.00 33.94 C 115.48 30.79 108.56 35.42 106.00 43.07 L 95.50 74.59 C 94.50 77.70 96.12 81.43 99.10 83.13 L 110.00 89.37 C 113.00 91.07 117.07 90.61 119.22 88.13 Z" fill="#3757b9" fill-rule="nonzero" node-id="96" stroke="#000000" stroke-linecap="butt" stroke-width="2.23" target-height="60.28" target-width="52.259995" target-x="94.5" target-y="30.79"></path><path d="M 109.17 65.99 L 104.10 79.28" fill="#3757b9" fill-rule="nonzero" node-id="98" stroke="#000000" stroke-linecap="round" stroke-width="2.23" target-height="13.290001" target-width="5.0699997" target-x="104.1" target-y="65.99"></path><path d="M 118.43 71.90 L 108.29 81.88" fill="#3757b9" fill-rule="nonzero" node-id="100" stroke="#000000" stroke-linecap="round" stroke-width="2.23" target-height="9.979996" target-width="10.139999" target-x="108.29" target-y="71.9"></path><path d="M 114.09 85.45 C 114.09 91.02 109.58 95.53 104.01 95.53 C 98.44 95.53 93.93 91.02 93.93 85.45 C 93.93 79.88 98.44 75.37 104.01 75.37 C 109.58 75.37 114.09 79.88 114.09 85.45 Z" fill="#2741c2" fill-rule="nonzero" node-id="102" stroke="#000000" stroke-linecap="butt" stroke-width="2.23" target-height="20.159996" target-width="20.159996" target-x="93.93" target-y="75.37"></path><path d="M 121.38 169.47 C 121.81 159.96 119.23 150.55 114.00 142.59 C 113.57 141.96 113.13 141.31 112.66 140.59 C 99.34 121.66 85.66 112.11 104.52 90.71 C 123.38 69.31 134.11 67.77 149.84 77.71 C 165.57 87.65 178.57 94.33 183.00 92.87 C 187.43 91.41 196.00 88.87 202.17 96.58 C 208.34 104.29 214.89 119.58 176.08 158.31 C 137.27 197.04 130.55 185.20 124.62 178.66 C 122.36 176.15 121.20 172.84 121.38 169.47 Z" fill="#ffc400" fill-rule="nonzero" node-id="104" stroke="#000000" stroke-linecap="butt" stroke-width="2.23" target-height="129.26999" target-width="129.23" target-x="85.66" target-y="67.77"></path><path d="M 197.64 108.11 L 198.25 108.96 L 198.60 110.10 L 198.67 111.63 L 198.34 113.67 L 197.56 116.24 L 196.23 119.37 L 194.25 123.18 L 190.77 128.80 L 186.10 135.32 L 180.83 141.85 L 174.63 148.80 L 168.08 155.42 L 161.89 161.07 L 155.67 166.14 L 150.27 169.96 L 146.59 172.18 L 143.55 173.69 L 141.04 174.63 L 139.02 175.08 L 137.49 175.11 L 136.33 174.83 L 135.44 174.27 L 134.83 173.42 L 134.48 172.28 L 134.42 170.76 L 134.74 168.71 L 135.52 166.15 L 136.85 163.01 L 138.83 159.21 L 142.31 153.58 L 146.98 147.06 L 152.25 140.53 L 158.45 133.59 L 165.00 126.97 L 171.19 121.31 L 177.41 116.25 L 182.81 112.43 L 186.49 110.21 L 189.53 108.69 L 192.04 107.75 L 194.06 107.30 L 195.59 107.27 L 196.75 107.56 L 197.64 108.11 Z" fill="#000000" fill-rule="nonzero" group-id="4" node-id="108" stroke="none" target-height="67.840004" target-width="64.25" target-x="134.42" target-y="107.27"></path><g clip-path="url(#clip-path-2)" group-id="5" id="sillyvg_g_1" node-id="111"><path d="M 169.03 136.48 C 169.03 141.70 164.80 145.93 159.58 145.93 C 154.36 145.93 150.13 141.70 150.13 136.48 C 150.13 131.26 154.36 127.03 159.58 127.03 C 164.80 127.03 169.03 131.26 169.03 136.48 Z" fill="#ffffff" fill-rule="nonzero" group-id="5" node-id="113" stroke="#000000" stroke-linecap="butt" stroke-width="2.23" target-height="18.899994" target-width="18.899994" target-x="150.13" target-y="127.03"></path></g><path d="M 197.64 108.11 L 198.25 108.96 L 198.60 110.10 L 198.67 111.63 L 198.34 113.67 L 197.56 116.24 L 196.23 119.37 L 194.25 123.18 L 190.77 128.80 L 186.10 135.32 L 180.83 141.85 L 174.63 148.80 L 168.08 155.42 L 161.89 161.07 L 155.67 166.14 L 150.27 169.96 L 146.59 172.18 L 143.55 173.69 L 141.04 174.63 L 139.02 175.08 L 137.49 175.11 L 136.33 174.83 L 135.44 174.27 L 134.83 173.42 L 134.48 172.28 L 134.42 170.76 L 134.74 168.71 L 135.52 166.15 L 136.85 163.01 L 138.83 159.21 L 142.31 153.58 L 146.98 147.06 L 152.25 140.53 L 158.45 133.59 L 165.00 126.97 L 171.19 121.31 L 177.41 116.25 L 182.81 112.43 L 186.49 110.21 L 189.53 108.69 L 192.04 107.75 L 194.06 107.30 L 195.59 107.27 L 196.75 107.56 L 197.64 108.11 Z" fill="none" group-id="6" node-id="118" stroke="#000000" stroke-linecap="butt" stroke-width="2.23" target-height="67.840004" target-width="64.25" target-x="134.42" target-y="107.27"></path></svg>