<?xml version="1.0" standalone="no"?><!DOCTYPE svg PUBLIC "-//W3C//DTD SVG 1.1//EN" "http://www.w3.org/Graphics/SVG/1.1/DTD/svg11.dtd"><svg class="icon" width="200px" height="200.00px" viewBox="0 0 1024 1024" version="1.1" xmlns="http://www.w3.org/2000/svg"><path d="M647.848732 877.773038a146.226962 146.226962 0 0 1-292.453924 0zM329.11965 841.216297h460.260788c67.470034 0 125.960819-44.987639 134.951493-112.457673v-8.990674c0-22.493819 0-49.488688-17.992771-76.472131-35.996966-67.492882-54.00116-125.972243-54.00116-184.451605v-9.002097c0-143.942166-76.472132-274.404034-197.931902-332.883395C645.415424 49.534384 586.936063 0 514.96498 0c-67.470034 0-130.450444 49.488688-143.942166 116.958722-116.970146 53.978312-197.943326 179.939132-197.943326 310.389576v35.985541c0 58.479361-17.992771 112.457673-53.978312 179.939132-18.004195 27.006292-22.493819 54.00116-18.004195 85.485653 9.002097 62.968986 67.481458 112.457673 134.962916 112.457673h89.632559" /></svg>