<?xml version="1.0" standalone="no"?><!DOCTYPE svg PUBLIC "-//W3C//DTD SVG 1.1//EN" "http://www.w3.org/Graphics/SVG/1.1/DTD/svg11.dtd"><svg t="1689834730285" class="icon" viewBox="0 0 1024 1024" version="1.1" xmlns="http://www.w3.org/2000/svg" p-id="2608" xmlns:xlink="http://www.w3.org/1999/xlink" width="200" height="200"><path d="M914.249143 708.571429c0 20.553143-9.142857 60.562286-17.700572 79.433142-11.995429 28.013714-43.995429 46.299429-69.705142 60.562286-33.718857 18.285714-67.986286 29.147429-106.276572 29.147429-53.138286 0-101.156571-21.723429-149.723428-39.424a534.930286 534.930286 0 0 1-99.986286-47.433143c-97.133714-60.013714-214.272-177.152-274.285714-274.285714a534.930286 534.930286 0 0 1-47.433143-99.986286C131.437714 368.018286 109.714286 320 109.714286 266.861714c0-38.290286 10.861714-72.557714 29.147428-106.276571 14.299429-25.709714 32.585143-57.709714 60.562286-69.705143 18.870857-8.557714 58.843429-17.700571 79.433143-17.700571 3.986286 0 8.009143 0 11.995428 1.718857 11.995429 3.986286 24.576 32 30.281143 43.446857 18.285714 32.585143 35.986286 65.718857 54.857143 97.718857 9.142857 14.848 26.294857 33.133714 26.294857 50.870857 0 34.852571-103.424 85.723429-103.424 116.553143 0 15.433143 14.299429 35.437714 22.272 49.152 57.709714 104.009143 129.718857 176.018286 233.728 233.728 13.714286 8.009143 33.718857 22.272 49.152 22.272 30.866286 0 81.700571-103.424 116.553143-103.424 17.700571 0 35.986286 17.152 50.870857 26.294857 32 18.870857 65.133714 36.571429 97.718857 54.857143 11.446857 5.705143 39.424 18.285714 43.446858 30.281143 1.718857 3.986286 1.718857 8.009143 1.718857 11.995428z" fill="" p-id="2609"></path></svg>