<?xml version="1.0" standalone="no"?><!DOCTYPE svg PUBLIC "-//W3C//DTD SVG 1.1//EN" "http://www.w3.org/Graphics/SVG/1.1/DTD/svg11.dtd"><svg t="1690528249615" class="icon" viewBox="0 0 1024 1024" version="1.1" xmlns="http://www.w3.org/2000/svg" p-id="22693" xmlns:xlink="http://www.w3.org/1999/xlink" width="200" height="200"><path d="M512 537.652m-361.62 0a361.62 361.62 0 1 0 723.24 0 361.62 361.62 0 1 0-723.24 0Z" fill="#E8E6F4" p-id="22694"></path><path d="M512 176.032c-93.124 0-178.02 35.212-242.12 93.032-57.824 64.1-93.036 148.996-93.036 242.124 0 199.716 161.904 361.62 361.62 361.62 93.124 0 178.02-35.212 242.12-93.036 57.824-64.1 93.036-148.996 93.036-242.12 0-199.72-161.904-361.62-361.62-361.62z" fill="#FCC800" p-id="22695"></path><path d="M729.808 753.832a12.168 12.168 0 0 0-0.72-1.472l-91.872-159.168a11.34 11.34 0 0 0-15.5-4.16l-30.284 17.468-19.092 11.04-2.496 1.436a11.336 11.336 0 0 0-4.16 15.5l4.652 8.052-80.492 4.84a18.904 18.904 0 0 1-17.504-9.416l-70.928-122.8a19.028 19.028 0 0 1 0.604-19.888l44.46-67.296 4.196 7.256 0.452 0.796a11.288 11.288 0 0 0 15.464 4.16l51.908-29.944a11.312 11.312 0 0 0 4.84-13.988 10.676 10.676 0 0 0-0.72-1.512l-91.872-159.132a11.328 11.328 0 0 0-15.5-4.16l-30.284 17.468-21.588 12.476a11.36 11.36 0 0 0-4.16 15.5l4.648 8.052-75.992 115.084a75.628 75.628 0 0 0-2.38 79.472l159.736 276.676a75.584 75.584 0 0 0 70.02 37.656l137.656-8.244 4.652 8.052a11.4 11.4 0 0 0 15.5 4.16l51.872-29.98a11.26 11.26 0 0 0 4.884-13.984z" fill="#E8E6F4" p-id="22696"></path><path d="M637.22 593.192a11.34 11.34 0 0 0-15.5-4.16l-49.376 28.508-2.496 1.436a11.336 11.336 0 0 0-4.16 15.5l4.652 8.052-80.492 4.84a18.904 18.904 0 0 1-17.504-9.416l-70.928-122.8a19.028 19.028 0 0 1 0.604-19.888l44.46-67.296 5.36 9.264 71.504-40.988c-0.188-0.528-92.592-160.644-92.592-160.644a11.328 11.328 0 0 0-15.5-4.16l-23.064 13.3-7.22 4.164-21.588 12.476a11.36 11.36 0 0 0-4.16 15.5l4.648 8.052 4.196 7.26-53.72 81.376a75.628 75.628 0 0 0-2.38 79.472l159.736 276.676a75.584 75.584 0 0 0 70.02 37.656l97.316-5.824 90.776-7.712c-0.192-0.492-92.592-160.644-92.592-160.644z" fill="#EB6B69" p-id="22697"></path><path d="M533.028 388.748l-91.888-159.152a23.168 23.168 0 0 0-14.172-10.88 23.2 23.2 0 0 0-17.716 2.332l-51.876 29.948a23.368 23.368 0 0 0-8.544 31.888l91.892 159.16a23.36 23.36 0 0 0 31.88 8.536l51.876-29.948a23.36 23.36 0 0 0 8.548-31.884z m-71.848 40.716L369.944 271.448l50.74-29.288 91.232 158.016-50.736 29.288zM739.488 746.344l-91.892-159.152a23.364 23.364 0 0 0-31.884-8.544l-51.876 29.948a23.184 23.184 0 0 0-10.876 14.172 23.16 23.16 0 0 0 2.332 17.712l91.888 159.152a23.168 23.168 0 0 0 14.172 10.88 23.212 23.212 0 0 0 17.716-2.332l51.876-29.948a23.368 23.368 0 0 0 8.544-31.888z m-71.848 40.724l-91.232-158.016 50.736-29.288 91.236 158.016-50.74 29.288z" fill="#44294F" p-id="22698"></path><path d="M577.024 630.116l-87.908 5.276a6.8 6.8 0 0 1-6.396-3.44l-70.9-122.804a6.848 6.848 0 0 1 0.22-7.252l48.52-73.496-96-166.276-86.696 131.304c-18.404 27.876-19.46 63.16-2.756 92.084l159.732 276.66c15.796 27.368 44.472 43.812 75.752 43.812 1.784 0 3.576-0.056 5.372-0.164l157.072-9.424-96.012-166.28z m-62.504 151.752c-24.132 1.416-46.772-10.696-58.904-31.696l-159.732-276.66c-12.124-21-11.356-46.616 2.008-66.856l65.3-98.904 69.164 119.8-40.344 61.112a30.72 30.72 0 0 0-0.976 32.48l70.9 122.804a30.696 30.696 0 0 0 28.616 15.396l73.1-4.388 69.168 119.8-118.3 7.112z" fill="#44294F" p-id="22699"></path><path d="M512 164.032c-206.016 0-373.62 167.604-373.62 373.62S305.984 911.272 512 911.272s373.62-167.604 373.62-373.62S718.016 164.032 512 164.032z m0 723.24c-192.78 0-349.62-156.84-349.62-349.62S319.22 188.032 512 188.032s349.62 156.84 349.62 349.62-156.84 349.62-349.62 349.62z" fill="#44294F" p-id="22700"></path><path d="M807.736 537.652c0 48.916-12.248 97.416-35.416 140.244l21.108 11.42c25.064-46.328 38.308-98.768 38.308-151.664h-24zM781.66 366.008l-20.228 12.916a294.212 294.212 0 0 1 35.484 79.352l23.116-6.444a317.84 317.84 0 0 0-38.372-85.824zM203.96 451.84a319.468 319.468 0 0 0-11.696 85.812h24c0-26.932 3.636-53.636 10.812-79.368l-23.116-6.444zM227.08 617.028l-23.116 6.444c25.812 92.532 91.156 167.916 179.276 206.832l9.696-21.952c-81.528-36.004-141.984-105.74-165.856-191.324z" fill="#44294F" p-id="22701"></path><path d="M717.3 124.728h-162.844c-23.448 0-42.456 19.008-42.456 42.456V247.44c0 23.448 19.008 42.456 42.456 42.456h51.416c0 30.736-19.032 57.008-45.944 67.728a72.6 72.6 0 0 0 26.948 5.168c40.26 0 72.896-32.636 72.896-72.896h57.524c23.448 0 42.456-19.008 42.456-42.456V167.184c0-23.448-19.004-42.456-42.452-42.456z" fill="#E8E6F4" p-id="22702"></path><path d="M717.3 124.728h-162.844a42.28 42.28 0 0 0-13.692 2.3 42.28 42.28 0 0 0-2.3 13.692v80.256c0 23.448 19.008 42.456 42.456 42.456h51.42c0 26.92-14.6 50.416-36.308 63.036a72.004 72.004 0 0 1-4.232 6.384 73.12 73.12 0 0 1-31.868 24.772 72.6 72.6 0 0 0 26.948 5.168c26.924 0 50.384-14.64 63.004-36.352l0.004-0.008c0.736-1.268 1.428-2.552 2.088-3.864 0.152-0.296 0.288-0.604 0.436-0.904 1.008-2.076 1.916-4.2 2.728-6.376 0.272-0.724 0.548-1.444 0.796-2.18a69.496 69.496 0 0 0 1.968-7.016c0.184-0.816 0.376-1.628 0.532-2.456a73.28 73.28 0 0 0 1.004-7.2c0.196-2.156 0.332-4.332 0.332-6.54h57.524c18.652 0 34.456-12.044 40.156-28.764a41.528 41.528 0 0 0 1.072-3.716c0.196-0.808 0.372-1.616 0.52-2.44 0.108-0.588 0.188-1.18 0.272-1.776 0.084-0.62 0.18-1.232 0.24-1.856 0.124-1.288 0.196-2.584 0.196-3.904V167.184c0-23.448-19.004-42.456-42.452-42.456z" fill="#8479B9" p-id="22703"></path><path d="M717.296 112.728h-162.84c-30.028 0-54.456 24.428-54.456 54.456V247.44c0 30.028 24.428 54.456 54.456 54.456h38.248c-3.96 19.984-17.7 36.804-37.216 44.58l-27.996 11.148 28 11.148a84.44 84.44 0 0 0 31.388 6.02c42.74 0 78.204-31.744 84.052-72.896h46.368c30.028 0 54.456-24.428 54.456-54.456V167.184c-0.004-30.028-24.432-54.456-54.46-54.456z m30.456 134.712c0 16.792-13.664 30.456-30.456 30.456h-69.524v12c0 31.688-24.328 57.796-55.284 60.636 15.972-15.612 25.388-37.228 25.388-60.636v-12h-63.416c-16.792 0-30.456-13.664-30.456-30.456V167.184c0-16.792 13.664-30.456 30.456-30.456h162.84c16.792 0 30.456 13.664 30.456 30.456V247.44z" fill="#44294F" p-id="22704"></path><path d="M572.668 207.312m-19.376 0a19.376 19.376 0 1 0 38.752 0 19.376 19.376 0 1 0-38.752 0Z" fill="#44294F" p-id="22705"></path><path d="M635.876 207.312m-19.376 0a19.376 19.376 0 1 0 38.752 0 19.376 19.376 0 1 0-38.752 0Z" fill="#44294F" p-id="22706"></path><path d="M699.084 207.312m-19.376 0a19.376 19.376 0 1 0 38.752 0 19.376 19.376 0 1 0-38.752 0Z" fill="#44294F" p-id="22707"></path></svg>