<?xml version="1.0" standalone="no"?><!DOCTYPE svg PUBLIC "-//W3C//DTD SVG 1.1//EN" "http://www.w3.org/Graphics/SVG/1.1/DTD/svg11.dtd"><svg t="1690528368844" class="icon" viewBox="0 0 1024 1024" version="1.1" xmlns="http://www.w3.org/2000/svg" p-id="12963" xmlns:xlink="http://www.w3.org/1999/xlink" width="200" height="200"><path d="M971.34 305.36h-77.46c-33.32 0-60.44 27.12-60.44 60.46v26.98h-117.92c-5.52 0-10 4.48-10 10v49.98h-47.1v-53.02c0-52.04-42.36-94.4-94.42-94.4h-153.94v-49.1c0-5.52-4.48-10-10-10h-117.02v-70h116.6c4.86 33.04 33.4 58.5 67.78 58.5h339.56c37.78 0 68.52-30.72 68.52-68.5s-30.74-68.52-68.52-68.52H467.42c-34.38 0-62.92 25.46-67.78 58.52h-119.02c-5.78-16.4-21.38-28.2-39.72-28.2-23.26 0-42.16 18.92-42.16 42.14v76.06H146.04c-5.54 0-10 4.48-10 10v49.12c-51.6 0.56-93.38 42.68-93.38 94.38v323.98c0 52.06 42.34 94.42 94.4 94.42h34.98v98.1c0 5.52 4.46 10 10 10h337c5.52 0 10-4.48 10-10v-98.1H564c52.06 0 94.42-42.36 94.42-94.42v-53.02h47.1v50c0 5.52 4.48 10 10 10h117.92v26.98c0 33.32 27.12 60.44 60.44 60.44h77.46c5.52 0 10-4.46 10-10V315.36c0-5.52-4.48-10-10-10zM467.42 117.74h339.56c26.76 0 48.52 21.76 48.52 48.52 0 26.74-21.76 48.5-48.52 48.5H467.42c-26.76 0-48.52-21.76-48.52-48.5 0-26.76 21.76-48.52 48.52-48.52zM218.74 170.2c0-12.2 9.94-22.14 22.16-22.14S263.04 158 263.04 170.2v76.06h-44.3V170.2z m-62.7 96.06h234.02v39.1H156.04v-39.1z m353 640H192.04v-88.1h317v88.1z m129.38-245.56v63.04c0 41.04-33.38 74.42-74.42 74.42h-44.94c-0.02 0-0.02-0.02-0.02-0.02-0.02 0-0.02 0.02-0.02 0.02H182.06c-0.02 0-0.02-0.02-0.02-0.02-0.02 0-0.02 0.02-0.02 0.02H137.06c-41.02 0-74.4-33.38-74.4-74.42V399.76c0-41.02 33.38-74.4 74.4-74.4H564c41.04 0 74.42 33.38 74.42 74.4v260.94z m67.1-9.98h-47.1v-177.94h47.1v177.94z m127.92 60h-107.92V412.8h107.92v297.92z m127.9 87.42h-67.46c-22.3 0-40.44-18.14-40.44-40.44v-36.94V402.8v-36.98c0-22.32 18.14-40.46 40.44-40.46h67.46v472.78z" fill="#23130D" p-id="12964"></path><path d="M658.42 472.78h47.1v177.94h-47.1z" fill="#636368" p-id="12965"></path><path d="M658.42 472.78h23.55v177.94H658.42z" fill="#23130D" opacity=".2" p-id="12966"></path><path d="M961.34 325.36v472.78h-67.46c-22.3 0-40.44-18.14-40.44-40.44v-36.94V402.8v-36.98c0-22.32 18.14-40.46 40.44-40.46h67.46z" fill="#3594BF" p-id="12967"></path><path d="M928.88 798.14h-35c-22.3 0-40.44-18.14-40.44-40.44v-36.94V402.8v-36.98c0-22.32 18.14-40.46 40.44-40.46h35c-22.3 0-40.44 18.14-40.44 40.46V757.7c0 22.3 18.14 40.44 40.44 40.44z" fill="#23130D" opacity=".2" p-id="12968"></path><path d="M725.52 412.8h107.92v297.92h-107.92z" fill="#E1E1E5" p-id="12969"></path><path d="M725.52 412.8H756v297.92h-30.48z" fill="#23130D" opacity=".2" p-id="12970"></path><path d="M855.5 166.26c0 26.74-21.76 48.5-48.52 48.5H467.42c-26.76 0-48.52-21.76-48.52-48.5 0-26.76 21.76-48.52 48.52-48.52h339.56c26.76 0 48.52 21.76 48.52 48.52z" fill="#3594BF" p-id="12971"></path><path d="M855.5 166.26c0 26.74-21.76 48.5-48.52 48.5H467.42c-26.76 0-48.52-21.76-48.52-48.5 0-4.38 0.58-8.64 1.68-12.68 5.58 20.62 24.46 35.84 46.84 35.84h339.56c22.38 0 41.26-15.22 46.84-35.84 1.1 4.04 1.68 8.3 1.68 12.68z" fill="#23130D" opacity=".2" p-id="12972"></path><path d="M263.04 170.2v76.06h-44.3V170.2c0-12.2 9.94-22.14 22.16-22.14S263.04 158 263.04 170.2z" fill="#E1E1E5" p-id="12973"></path><path d="M248.14 149.28c-8.66 3.02-14.9 11.26-14.9 20.92v76.06h-14.5V170.2c0-12.2 9.94-22.14 22.16-22.14 2.54 0 4.98 0.42 7.24 1.22z" fill="#23130D" opacity=".2" p-id="12974"></path><path d="M156.04 266.26h234.02v39.1H156.04z" fill="#636368" p-id="12975"></path><path d="M156.04 291.5h234.02v13.86H156.04z" fill="#23130D" opacity=".2" p-id="12976"></path><path d="M192.04 818.16v88.1h317v-88.1H192.04z m248.22 54.04H260.8c-5.52 0-10-4.48-10-10s4.48-10 10-10h179.46c5.52 0 10 4.48 10 10s-4.48 10-10 10z" fill="#3594BF" p-id="12977"></path><path d="M564 325.36H137.06c-41.02 0-74.4 33.38-74.4 74.4v323.98c0 41.04 33.38 74.42 74.4 74.42h44.96s0-0.02 0.02-0.02c0 0 0 0.02 0.02 0.02h336.96s0-0.02 0.02-0.02c0 0 0 0.02 0.02 0.02H564c41.04 0 74.42-33.38 74.42-74.42v-63-0.02-260.96c0-41.02-33.38-74.4-74.42-74.4z m-313.62 44.88h75.96c5.52 0 10 4.48 10 10s-4.48 10-10 10h-75.96c-5.52 0-10-4.48-10-10s4.48-10 10-10z m-117.6 0h75.96c5.52 0 10 4.48 10 10s-4.48 10-10 10H132.78c-5.52 0-10-4.48-10-10s4.48-10 10-10z m178.86 380.78H134.78c-5.54 0-10-4.48-10-10s4.46-10 10-10h176.86c5.52 0 10 4.48 10 10s-4.48 10-10 10z m0-40.6H134.78c-5.54 0-10-4.48-10-10 0-5.54 4.46-10 10-10h176.86c5.52 0 10 4.46 10 10 0 5.52-4.48 10-10 10zM546 751.02h-175.16c-16.72 0-30.3-13.6-30.3-30.3 0-16.72 13.58-30.3 30.3-30.3H546c16.7 0 30.3 13.58 30.3 30.3 0 16.7-13.6 30.3-30.3 30.3z m30.3-130.36c0 9.66-3.76 18.72-10.58 25.56-6.84 6.82-15.9 10.58-25.56 10.58H160.9c-19.92 0-36.12-16.22-36.12-36.14V451.4c0-19.92 16.2-36.14 36.12-36.14h379.26c19.92 0 36.14 16.22 36.14 36.14v169.26z" fill="#E1E1E5" p-id="12978"></path><path d="M564 325.36H137.06c-41.02 0-74.4 33.38-74.4 74.4v323.98c0 25.76 13.14 48.48 33.08 61.86a74.036 74.036 0 0 1-12.56-41.36V420.28c0-41.04 33.38-74.42 74.4-74.42h426.94c15.28 0 29.5 4.62 41.34 12.56-13.38-19.92-36.1-33.06-61.86-33.06z" fill="#FFFFFF" opacity=".7" p-id="12979"></path><path d="M605.34 337.9a73.97 73.97 0 0 1 12.56 41.34V703.22c0 41.04-33.38 74.42-74.42 74.42h-44.94c-0.02 0-0.02-0.02-0.02-0.02-0.02 0-0.02 0.02-0.02 0.02H161.54c-0.02 0-0.02-0.02-0.02-0.02-0.02 0-0.02 0.02-0.02 0.02H116.54c-15.28 0-29.5-4.62-41.32-12.56 13.36 19.94 36.1 33.08 61.84 33.08h44.96s0-0.02 0.02-0.02c0 0 0 0.02 0.02 0.02h336.96s0-0.02 0.02-0.02c0 0 0 0.02 0.02 0.02H564c41.04 0 74.42-33.38 74.42-74.44v-63-0.02-260.94c0-25.76-13.14-48.48-33.08-61.86z" fill="#23130D" opacity=".2" p-id="12980"></path><path d="M450.26 862.2c0 5.52-4.48 10-10 10H260.8c-5.52 0-10-4.48-10-10s4.48-10 10-10h179.46c5.52 0 10 4.48 10 10z" fill="#FFFFFF" p-id="12981"></path><path d="M540.16 415.26H160.9c-19.92 0-36.12 16.22-36.12 36.14v169.26c0 19.92 16.2 36.14 36.12 36.14h379.26c9.66 0 18.72-3.76 25.56-10.58 6.82-6.84 10.58-15.9 10.58-25.56V451.4c0-19.92-16.22-36.14-36.14-36.14z m16.14 205.4c0 8.9-7.24 16.14-16.14 16.14H160.9c-8.9 0-16.12-7.24-16.12-16.14V451.4c0-8.9 7.22-16.14 16.12-16.14h379.26c8.9 0 16.14 7.24 16.14 16.14v169.26z" fill="#23130D" p-id="12982"></path><path d="M556.3 451.4v169.26c0 8.9-7.24 16.14-16.14 16.14H160.9c-8.9 0-16.12-7.24-16.12-16.14V451.4c0-8.9 7.22-16.14 16.12-16.14h379.26c8.9 0 16.14 7.24 16.14 16.14z" fill="#3594BF" p-id="12983"></path><path d="M556.26 450.26c-0.38-0.02-0.76-0.04-1.14-0.04H175.86c-8.9 0-16.12 7.24-16.12 16.14v169.26c0 0.38 0.02 0.76 0.04 1.14-8.38-0.56-15-7.58-15-16.1V451.4c0-8.9 7.22-16.14 16.12-16.14h379.26c8.52 0 15.5 6.62 16.1 15z" fill="#FFFFFF" opacity=".7" p-id="12984"></path><path d="M556.28 451.38v169.26c0 8.9-7.24 16.14-16.14 16.14H160.88c-8.52 0-15.5-6.64-16.08-15 0.38 0.02 0.74 0.04 1.12 0.04h379.26c8.9 0 16.14-7.24 16.14-16.14v-169.26c0-0.38-0.02-0.76-0.04-1.14 8.38 0.6 15 7.58 15 16.1z" fill="#23130D" opacity=".2" p-id="12985"></path><path d="M546 690.42h-175.16c-16.72 0-30.3 13.58-30.3 30.3 0 16.7 13.58 30.3 30.3 30.3H546c16.7 0 30.3-13.6 30.3-30.3 0-16.72-13.6-30.3-30.3-30.3z m0 40.6h-175.16c-5.68 0-10.3-4.62-10.3-10.3 0-5.68 4.62-10.3 10.3-10.3H546c5.68 0 10.3 4.62 10.3 10.3 0 5.68-4.62 10.3-10.3 10.3z" fill="#23130D" p-id="12986"></path><path d="M556.3 720.72c0 5.68-4.62 10.3-10.3 10.3h-175.16c-5.68 0-10.3-4.62-10.3-10.3 0-5.68 4.62-10.3 10.3-10.3H546c5.68 0 10.3 4.62 10.3 10.3z" fill="#636368" p-id="12987"></path><path d="M321.64 700.42c0 5.52-4.48 10-10 10H134.78c-5.54 0-10-4.48-10-10 0-5.54 4.46-10 10-10h176.86c5.52 0 10 4.46 10 10zM218.74 380.24c0 5.52-4.48 10-10 10H132.78c-5.52 0-10-4.48-10-10s4.48-10 10-10h75.96c5.52 0 10 4.48 10 10zM336.34 380.24c0 5.52-4.48 10-10 10h-75.96c-5.52 0-10-4.48-10-10s4.48-10 10-10h75.96c5.52 0 10 4.48 10 10zM321.64 741.02c0 5.52-4.48 10-10 10H134.78c-5.54 0-10-4.48-10-10s4.46-10 10-10h176.86c5.52 0 10 4.48 10 10z" fill="#23130D" p-id="12988"></path></svg>